<?xml version="1.0" encoding="UTF-8"?>
<!DOCTYPE svg PUBLIC "-//W3C//DTD SVG 1.1//EN" "http://www.w3.org/Graphics/SVG/1.1/DTD/svg11.dtd">
<!-- Creator: CorelDRAW 2020 (64-Bit) -->
<svg xmlns="http://www.w3.org/2000/svg" xml:space="preserve" width="20mm" height="20.0001mm" version="1.1" style="shape-rendering:geometricPrecision; text-rendering:geometricPrecision; image-rendering:optimizeQuality; fill-rule:evenodd; clip-rule:evenodd"
viewBox="0 0 1335.43 1335.44"
 xmlns:xlink="http://www.w3.org/1999/xlink"
 xmlns:xodm="http://www.corel.com/coreldraw/odm/2003">
 <defs>
  <style type="text/css">
   <![CDATA[
    .fil0 {fill:red;fill-rule:nonzero}
   ]]>
  </style>
 </defs>
 <g id="Слой_x0020_1">
  <metadata id="CorelCorpID_0Corel-Layer"/>
  <g id="_2973241349040">
   <g>
    <path class="fil0" d="M1335.33 665.44c0,-0.01 0,-0.03 0,-0.04 0,-0.75 -0.08,-1.49 -0.11,-2.24 -1.14,-28.52 -12.64,-55.19 -32.93,-75.5l-143.68 -143.65c-17.39,-17.38 -45.52,-17.33 -62.83,0.15 -17.31,17.47 -17.24,45.74 0.15,63.12l113.49 113.47 -265.21 0c-2.3,-3.1 -4.77,-6.11 -7.55,-8.89l-213.39 -213.32c-2.75,-2.74 -5.72,-5.18 -8.79,-7.46l0 -265.1 274.85 274.76c17.39,17.39 45.52,17.32 62.83,-0.15 17.31,-17.48 17.24,-45.74 -0.15,-63.13l-304.5 -304.39c-20.38,-20.37 -47.19,-31.87 -75.82,-32.86 -0.54,-0.02 -1.08,-0.09 -1.63,-0.09 -0.01,0 -0.02,0 -0.03,0 -0.77,-0.01 -1.54,-0.11 -2.3,-0.11 -30.13,0 -58.46,11.74 -79.79,33.05l-554.79 554.6c-21.37,21.37 -33.14,49.81 -33.14,80.06 0,30.25 11.77,58.69 33.15,80.07l554.79 554.61c20.35,20.32 47.09,31.82 75.67,32.85 0.01,0 0.01,0 0.03,0 1.36,0.05 2.71,0.19 4.09,0.19 30.11,0 58.45,-11.73 79.78,-33.05l554.79 -554.61c21.37,-21.37 33.15,-49.81 33.15,-80.06 0.01,-0.76 -0.09,-1.52 -0.11,-2.28zm-709.7 -544.12l0 266.52c-4.8,3.06 -9.33,6.61 -13.47,10.73l-213.38 213.32c-4.65,4.65 -8.57,9.82 -11.87,15.33l-267.33 0 506.05 -505.9zm-6.44 1086.38l-48.64 -48.62 -442.74 -442.59 264.75 0c1.94,2.46 3.98,4.86 6.22,7.1l213.38 213.32c2.22,2.22 4.58,4.24 7.01,6.15l0 264.64 0.01 0zm48.54 -341.2l-198.83 -198.77 198.83 -198.77 198.83 198.77 -198.83 198.77zm40.32 349.42l0.01 -267.22c5.47,-3.29 10.62,-7.18 15.25,-11.81l213.39 -213.32c4.15,-4.15 7.71,-8.7 10.79,-13.53l266.63 0 -506.06 505.88z"/>
   </g>
  </g>
 </g>
</svg>
